<svg width="118" height="31" viewBox="0 0 118 31" fill="none" xmlns="http://www.w3.org/2000/svg">
<g clip-path="url(#clip0_6081_8514)">
<path d="M110.862 25.9048C110.803 25.9048 110.745 25.8902 110.701 25.8464L89.6204 4.75117C89.5328 4.66358 89.5328 4.53219 89.6204 4.4446C89.708 4.35701 89.8394 4.35701 89.927 4.4446L111.022 25.5398C111.11 25.6274 111.11 25.7588 111.022 25.8464C110.978 25.8756 110.92 25.9048 110.862 25.9048Z" fill="#0626A9"/>
<path d="M89.7966 25.9195C89.7382 25.9195 89.6798 25.9049 89.636 25.8611C89.5484 25.7735 89.5484 25.6421 89.636 25.5545L110.731 4.4739C110.819 4.3863 110.95 4.3863 111.038 4.4739C111.125 4.56149 111.125 4.69288 111.038 4.78047L89.9572 25.8611C89.9134 25.9049 89.855 25.9195 89.7966 25.9195Z" fill="#0626A9"/>
<path d="M100.364 30.2837C100.247 30.2837 100.145 30.1815 100.145 30.0647V0.224841C100.145 0.108051 100.247 0.00585938 100.364 0.00585938C100.48 0.00585938 100.582 0.108051 100.582 0.224841V30.0647C100.582 30.1815 100.48 30.2837 100.364 30.2837Z" fill="#0626A9"/>
<path d="M115.288 15.3647H85.4338C85.317 15.3647 85.2148 15.2625 85.2148 15.1457C85.2148 15.0289 85.317 14.9268 85.4338 14.9268H115.274C115.39 14.9268 115.493 15.0289 115.493 15.1457C115.493 15.2625 115.405 15.3647 115.288 15.3647Z" fill="#0626A9"/>
<path d="M113.257 7.90476H87.344C87.2272 7.90476 87.125 7.80257 87.125 7.68578C87.125 7.56899 87.2272 7.4668 87.344 7.4668H113.257C113.374 7.4668 113.476 7.56899 113.476 7.68578C113.476 7.80257 113.374 7.90476 113.257 7.90476Z" fill="#0626A9"/>
<path d="M113.228 22.8247H87.344C87.2272 22.8247 87.125 22.7225 87.125 22.6057C87.125 22.4889 87.2272 22.3867 87.344 22.3867H113.228C113.344 22.3867 113.447 22.4889 113.447 22.6057C113.447 22.7225 113.359 22.8247 113.228 22.8247Z" fill="#0626A9"/>
<path d="M100.364 30.2837C100.247 30.2837 100.145 30.1815 100.145 30.0647V0.224841C100.145 0.108051 100.247 0.00585938 100.364 0.00585938C100.48 0.00585938 100.582 0.108051 100.582 0.224841V30.0647C100.582 30.1815 100.48 30.2837 100.364 30.2837Z" fill="#0626A9"/>
<path d="M92.9065 28.2417C92.7897 28.2417 92.6875 28.1395 92.6875 28.0227V2.1975C92.6875 2.08071 92.7897 1.97852 92.9065 1.97852C93.0233 1.97852 93.1255 2.08071 93.1255 2.1975V28.0227C93.1255 28.1541 93.0233 28.2417 92.9065 28.2417Z" fill="#0626A9"/>
<path d="M107.824 28.2418C107.708 28.2418 107.605 28.1396 107.605 28.0229V2.24144C107.605 2.12465 107.708 2.02246 107.824 2.02246C107.941 2.02246 108.043 2.12465 108.043 2.24144V28.0229C108.043 28.1542 107.941 28.2418 107.824 28.2418Z" fill="#0626A9"/>
<path d="M115.283 15.3652C115.225 15.3652 115.166 15.3506 115.122 15.3068L100.202 0.372268C100.115 0.284676 100.115 0.153287 100.202 0.0656944C100.29 -0.0218981 100.421 -0.0218981 100.509 0.0656944L115.429 14.9856C115.517 15.0732 115.517 15.2046 115.429 15.2922C115.385 15.336 115.341 15.3652 115.283 15.3652Z" fill="#0626A9"/>
<path d="M100.369 30.2861C100.31 30.2861 100.252 30.2715 100.208 30.2277L85.2884 15.3078C85.2008 15.2202 85.2008 15.0888 85.2884 15.0012C85.3759 14.9136 85.5073 14.9136 85.5949 15.0012L100.515 29.9212C100.602 30.0088 100.602 30.1402 100.515 30.2277C100.471 30.2715 100.413 30.2861 100.369 30.2861Z" fill="#0626A9"/>
<path d="M100.363 30.2861C100.305 30.2861 100.246 30.2715 100.202 30.2277C100.115 30.1402 100.115 30.0088 100.202 29.9212L115.122 15.0012C115.21 14.9136 115.341 14.9136 115.429 15.0012C115.517 15.0888 115.517 15.2202 115.429 15.3078L100.509 30.2277C100.465 30.2715 100.407 30.2861 100.363 30.2861Z" fill="#0626A9"/>
<path d="M85.4255 15.3652C85.3671 15.3652 85.3087 15.3506 85.2649 15.3068C85.1773 15.2192 85.1773 15.0878 85.2649 15.0002L100.199 0.0656944C100.287 -0.0218981 100.418 -0.0218981 100.506 0.0656944C100.594 0.153287 100.594 0.284676 100.506 0.372268L85.5861 15.3068C85.5423 15.336 85.4839 15.3652 85.4255 15.3652Z" fill="#0626A9"/>
<path d="M100.326 30.2691C91.9759 30.2691 85.1875 23.4807 85.1875 15.1448C85.1875 6.79433 91.9759 0.0205078 100.326 0.0205078C108.677 0.0205078 115.465 6.80893 115.465 15.1448C115.465 23.4807 108.677 30.2691 100.326 30.2691ZM100.326 0.443872C92.2241 0.443872 85.6255 7.04251 85.6255 15.1302C85.6255 23.2325 92.2241 29.8166 100.326 29.8166C108.429 29.8166 115.027 23.2325 115.027 15.1302C115.027 7.02791 108.429 0.443872 100.326 0.443872Z" fill="#0626A9"/>
<path d="M101.607 15.1314C101.607 15.8322 101.037 16.4015 100.337 16.4015C99.6358 16.4015 99.0664 15.8322 99.0664 15.1314C99.0664 14.4307 99.6358 13.8613 100.337 13.8613C101.052 13.8759 101.607 14.4307 101.607 15.1314Z" fill="#0626A9"/>
<path d="M101.298 22.6062C101.298 23.1318 100.875 23.5405 100.364 23.5405C99.8531 23.5405 99.4297 23.1172 99.4297 22.6062C99.4297 22.0952 99.8531 21.6719 100.364 21.6719C100.875 21.6719 101.298 22.0806 101.298 22.6062Z" fill="#0626A9"/>
<path d="M93.8413 7.68628C93.8413 8.19725 93.418 8.62062 92.907 8.62062C92.396 8.62062 91.9727 8.19725 91.9727 7.68628C91.9727 7.16072 92.396 6.75195 92.907 6.75195C93.418 6.75195 93.8413 7.16072 93.8413 7.68628Z" fill="#0626A9"/>
<path d="M94.1613 22.606C94.1613 23.3068 93.592 23.8762 92.8912 23.8762C92.1905 23.8762 91.6211 23.3068 91.6211 22.606C91.6211 21.9053 92.1905 21.3359 92.8912 21.3359C93.6066 21.3359 94.1613 21.9053 94.1613 22.606Z" fill="#0626A9"/>
<path d="M116.224 15.1453C116.224 15.6562 115.801 16.0796 115.29 16.0796C114.779 16.0796 114.355 15.6562 114.355 15.1453C114.355 14.6197 114.779 14.2109 115.29 14.2109C115.801 14.2109 116.224 14.6197 116.224 15.1453Z" fill="#0626A9"/>
<path d="M101.298 30.0662C101.298 30.5771 100.875 31.0005 100.364 31.0005C99.8531 31.0005 99.4297 30.5771 99.4297 30.0662C99.4297 29.5552 99.8531 29.1318 100.364 29.1318C100.875 29.1318 101.298 29.5552 101.298 30.0662Z" fill="#1226AA"/>
<path d="M109.083 28.0221C109.083 28.7228 108.514 29.2922 107.813 29.2922C107.112 29.2922 106.543 28.7228 106.543 28.0221C106.543 27.3213 107.112 26.752 107.813 26.752C108.528 26.7666 109.083 27.3213 109.083 28.0221Z" fill="#0626A9"/>
<path d="M88.2749 22.6062C88.2749 23.1318 87.8515 23.5405 87.3406 23.5405C86.8296 23.5405 86.4062 23.1172 86.4062 22.6062C86.4062 22.0952 86.8296 21.6719 87.3406 21.6719C87.8515 21.6719 88.2749 22.0806 88.2749 22.6062Z" fill="#0626A9"/>
<path d="M109.083 2.23983C109.083 2.94058 108.514 3.50994 107.813 3.50994C107.112 3.50994 106.543 2.94058 106.543 2.23983C106.543 1.53909 107.112 0.969727 107.813 0.969727C108.528 0.969727 109.083 1.53909 109.083 2.23983Z" fill="#0626A9"/>
<path d="M88.5988 7.69979C88.5988 8.40054 88.0295 8.9699 87.3287 8.9699C86.628 8.9699 86.0586 8.40054 86.0586 7.69979C86.0586 6.99905 86.628 6.42969 87.3287 6.42969C88.0441 6.44429 88.5988 7.01364 88.5988 7.69979Z" fill="#0626A9"/>
<path d="M114.193 7.68628C114.193 8.19725 113.77 8.62062 113.259 8.62062C112.748 8.62062 112.324 8.19725 112.324 7.68628C112.324 7.16072 112.748 6.75195 113.259 6.75195C113.77 6.75195 114.193 7.16072 114.193 7.68628Z" fill="#0626A9"/>
<path d="M108.759 15.1619C108.759 15.6874 108.336 16.0962 107.825 16.0962C107.314 16.0962 106.891 15.6728 106.891 15.1619C106.891 14.6509 107.314 14.2275 107.825 14.2275C108.336 14.2275 108.759 14.6363 108.759 15.1619Z" fill="#0626A9"/>
<path d="M90.7163 4.59156C90.7163 5.10252 90.293 5.52589 89.782 5.52589C89.271 5.52589 88.8477 5.10252 88.8477 4.59156C88.8477 4.0806 89.271 3.65723 89.782 3.65723C90.293 3.65723 90.7163 4.0806 90.7163 4.59156Z" fill="#0626A9"/>
<path d="M19.9418 4.63498H16.3505C16.2629 4.63498 16.1899 4.67878 16.1607 4.75177L10.1023 15.9923L3.98539 4.75177C3.94159 4.67878 3.86859 4.63498 3.79561 4.63498H0.218976C0.102182 4.63498 0 4.73717 0 4.85396V26.007C0 26.1238 0.10219 26.226 0.218976 26.226H3.64969C3.76648 26.226 3.86867 26.1238 3.86867 26.007V12.1962L9.25555 21.5978C9.29935 21.6708 9.37235 21.7146 9.44534 21.7146H10.7009C10.7738 21.7146 10.8468 21.6708 10.8906 21.5978L16.2483 12.1671V25.9924C16.2483 26.1092 16.3505 26.2113 16.4673 26.2113H19.9271C19.9855 26.2113 20.0439 26.1821 20.0877 26.153C20.1315 26.1092 20.1461 26.0508 20.1461 25.9924V4.85374C20.1607 4.72236 20.0585 4.63477 19.9417 4.63477L19.9418 4.63498Z" fill="#011B2B"/>
<path d="M73.7578 4.57617H70.5315C70.4147 4.57617 70.3125 4.67836 70.3125 4.79515V26.0649C70.3125 26.1817 70.4147 26.2839 70.5315 26.2839H73.7578C73.8746 26.2839 73.9768 26.1817 73.9768 26.0649V4.79515C73.9768 4.66376 73.8892 4.57617 73.7578 4.57617Z" fill="#011B2B"/>
<path d="M64.8901 22.3007L62.5544 19.9357C62.4668 19.8481 62.3354 19.8481 62.2478 19.9357C60.5251 21.5416 58.9631 22.5343 56.4521 22.5343C52.6856 22.5343 49.8389 19.4832 49.8389 15.4247V15.3664C49.8389 13.4393 50.5104 11.6583 51.7222 10.3444C52.9485 9.01589 54.6273 8.286 56.4522 8.286C58.4814 8.286 60.2186 9.05973 62.1019 10.7969C62.1457 10.8407 62.2041 10.8553 62.2625 10.8553C62.3208 10.8553 62.3793 10.8261 62.423 10.7823L64.7588 8.09616C64.8318 8.00856 64.8318 7.87718 64.7442 7.78958C63.0508 6.16912 60.7295 4.50488 56.4959 4.50488C50.2915 4.50488 45.6055 9.20567 45.6055 15.4243V15.4827C45.6055 18.4316 46.7004 21.1616 48.6712 23.1908C50.6713 25.2346 53.3866 26.3441 56.3501 26.3441C58.8027 26.3441 61.737 25.9061 64.9049 22.6069C64.9779 22.5193 64.9779 22.3879 64.8903 22.3003L64.8901 22.3007Z" fill="#011B2B"/>
<path d="M39.3933 15.4392C38.3859 14.6363 37.072 14.1107 35.1742 13.7312C35.1596 13.7312 35.1158 13.7166 35.072 13.702C35.0428 13.702 35.0136 13.6874 34.9844 13.6874C34.7946 13.6436 34.3713 13.556 33.9333 13.4684C33.4661 13.3808 32.9698 13.2786 32.8238 13.2348C31.6705 12.9136 30.9843 12.6071 30.5756 12.2129C30.1814 11.8479 29.9916 11.3662 29.9624 10.7385V10.6801V10.5049C30.0208 9.16182 31.0719 8.2129 32.7216 8.00854C33.1304 7.96474 33.5245 7.95014 33.9187 7.97934C35.5829 8.09613 36.999 8.66548 38.2836 9.70203C38.342 9.76042 38.4588 9.77502 38.5318 9.74583H38.5464C38.6048 9.74583 38.6632 9.71663 38.707 9.67283L40.6632 7.35161C40.7362 7.26402 40.7362 7.11803 40.634 7.04504C38.5901 5.27857 36.3711 4.49023 33.4368 4.49023C29.0719 4.49023 26.1374 7.03038 26.1374 10.826V10.899C26.1374 12.6508 26.663 13.9794 27.7141 14.9721C28.663 15.8626 30.0499 16.4903 31.9332 16.8845C32.05 16.9136 32.3419 16.972 32.6339 17.0304C32.8383 17.0742 33.0281 17.1034 33.1157 17.1326C33.247 17.1618 33.539 17.2202 33.8164 17.264C34.0792 17.3078 34.3419 17.3662 34.4295 17.3808C35.4807 17.6436 36.1668 17.848 36.6777 18.2567C37.2617 18.7093 37.5099 19.2786 37.5245 20.1108V20.1692C37.5245 21.6728 36.342 22.6655 34.3711 22.8261C34.1521 22.8407 33.9186 22.8553 33.685 22.8553C33.4806 22.8553 33.2762 22.8553 33.0719 22.8407C31.028 22.6947 29.4368 22.0086 27.9331 20.6217C27.8747 20.5633 27.7871 20.5487 27.7287 20.5633H27.7141C27.6557 20.5633 27.5973 20.5925 27.5535 20.6363L25.4221 22.9575C25.3345 23.0451 25.3491 23.1765 25.4367 23.2641C27.6557 25.3663 30.3419 26.3737 33.6558 26.3737C38.3566 26.3737 41.3785 23.8481 41.3785 19.9503V19.8919C41.3931 17.9795 40.7215 16.4758 39.3931 15.4393L39.3933 15.4392Z" fill="#011B2B"/>
<path d="M93.8413 2.23999C93.8413 2.75095 93.4179 3.17431 92.907 3.17431C92.396 3.17431 91.9727 2.75095 91.9727 2.23999C91.9727 1.71443 92.396 1.30566 92.907 1.30566C93.4179 1.30566 93.8413 1.72903 93.8413 2.23999Z" fill="#0626A9"/>
</g>
<defs>
<clipPath id="clip0_6081_8514">
<rect width="117.471" height="30.9436" fill="white"/>
</clipPath>
</defs>
</svg>
