<svg width="99" height="54" viewBox="0 0 99 54" fill="none" xmlns="http://www.w3.org/2000/svg">
<g clip-path="url(#clip0_4094_7941)">
<path d="M75.9356 45.369C88.0265 33.2788 90.036 15.6868 80.4237 6.07518C70.8128 -3.53533 53.2215 -1.52619 41.1313 10.5632C29.0412 22.653 32.5386 45.751 36.644 49.857C39.9615 53.1745 63.8462 57.4584 75.9356 45.369Z" fill="#F89939"/>
<path d="M26.3249 27.8952C19.3108 20.8811 9.10301 19.7134 3.52505 25.291C-2.05148 30.8678 -0.885552 41.077 6.13 48.0901C13.1455 55.1063 26.548 53.0768 28.9284 50.6943C30.8547 48.7712 33.3411 34.91 26.3249 27.8952Z" fill="#3499CD"/>
<path d="M50.5273 42.4041C49.2882 43.5447 48.2012 44.3865 47.2669 44.9273C46.3327 45.4699 45.4417 45.7409 44.5938 45.7409C43.6185 45.7409 42.8317 45.3628 42.2352 44.6064C41.6376 43.8492 41.3398 42.8339 41.3398 41.5566C41.3398 39.6428 41.7547 37.3452 42.5843 34.6664C43.4125 31.9854 44.421 29.515 45.6055 27.2549L49.0787 25.969C49.1875 25.9326 49.2704 25.9141 49.3253 25.9141C49.5888 25.9141 49.8066 26.1083 49.9736 26.4949C50.1425 26.8833 50.2274 27.4052 50.2274 28.0613C50.2274 29.9209 49.7994 31.7212 48.9416 33.4622C48.0841 35.204 46.7447 37.0628 44.9219 39.0409C44.8487 39.9891 44.8123 40.6402 44.8123 40.9961C44.8123 41.7897 44.9579 42.4177 45.2496 42.8828C45.5416 43.3487 45.9286 43.58 46.4119 43.58C46.9049 43.58 47.4286 43.4037 47.9848 43.0481C48.54 42.6918 49.3878 41.9543 50.527 40.8323V42.4041H50.5273ZM45.291 37.0589C46.4484 35.772 47.3883 34.3287 48.108 32.7318C48.8277 31.1343 49.1872 29.7603 49.1872 28.609C49.1872 28.2734 49.1376 28.0007 49.038 27.7958C48.9376 27.5905 48.8091 27.4873 48.6546 27.4873C48.3186 27.4873 47.8278 28.3269 47.1848 30.0066C46.5419 31.6859 45.9107 34.037 45.291 37.0589Z" fill="#010101"/>
<path d="M60.7584 42.4048C59.601 43.5454 58.5622 44.3871 57.6411 44.928C56.7201 45.4706 55.7048 45.7416 54.5921 45.7416C53.3523 45.7416 52.352 45.3449 51.5898 44.5528C50.8291 43.7585 50.4492 42.7157 50.4492 41.4209C50.4492 39.4889 51.1186 37.7407 52.4601 36.1775C53.7988 34.6135 55.2854 33.832 56.9168 33.832C57.7646 33.832 58.4429 34.0516 58.9541 34.4889C59.4646 34.9269 59.7199 35.5006 59.7199 36.2117C59.7199 38.0991 57.7147 39.6295 53.7039 40.8058C54.068 42.5826 55.0205 43.4722 56.5612 43.4722C57.1631 43.4722 57.7368 43.3105 58.2833 42.9877C58.8313 42.6636 59.6556 41.9446 60.7587 40.8333L60.7584 42.4048ZM53.5936 39.8759C55.9265 39.219 57.0939 38.0074 57.0939 36.2389C57.0939 35.3639 56.7744 34.9266 56.1371 34.9266C55.5352 34.9266 54.9616 35.3839 54.415 36.301C53.8667 37.2167 53.5936 38.4076 53.5936 39.8759Z" fill="#010101"/>
<path d="M75.3606 42.4043C73.9019 43.7898 72.8581 44.6934 72.2298 45.1132C71.6008 45.5323 70.9993 45.7415 70.4245 45.7415C68.9841 45.7415 68.3054 44.4702 68.3872 41.9267C67.4758 43.2297 66.6344 44.1914 65.864 44.8126C65.0943 45.4323 64.2993 45.7415 63.4779 45.7415C62.6768 45.7415 61.9956 45.3663 61.4341 44.6141C60.8726 43.8619 60.5938 42.9395 60.5938 41.8446C60.5938 40.478 60.9689 39.1743 61.7204 37.9338C62.4733 36.6939 63.4372 35.6922 64.6127 34.9265C65.7883 34.1607 66.8286 33.7773 67.73 33.7773C68.8698 33.7773 69.6677 34.3018 70.1236 35.3495L72.9181 33.8052H73.6849L72.4779 37.811C71.8582 39.8262 71.5473 41.2074 71.5473 41.9545C71.5473 42.7381 71.8246 43.1301 72.3812 43.1301C72.7353 43.1301 73.1273 42.9412 73.556 42.5625C73.9848 42.1837 74.5852 41.6072 75.3599 40.8325V42.4043H75.3606ZM65.3517 43.1572C66.2631 43.1572 67.122 42.3804 67.9302 40.8265C68.737 39.2718 69.1401 37.8374 69.1401 36.5251C69.1401 36.0153 69.0251 35.6158 68.7984 35.3292C68.5696 35.0411 68.2644 34.8983 67.8824 34.8983C66.9703 34.8983 66.1057 35.6729 65.2914 37.223C64.4756 38.773 64.0669 40.1996 64.0669 41.5019C64.0669 41.9949 64.1883 42.3936 64.4296 42.6992C64.6709 43.0048 64.9772 43.1572 65.3517 43.1572Z" fill="#010101"/>
<path d="M85.5748 42.4042C83.2865 44.6464 81.5223 45.7685 80.2828 45.7685C79.7263 45.7685 79.2565 45.5336 78.8745 45.0656C78.4925 44.5958 78.3001 44.0142 78.3001 43.3209C78.3001 42.0358 78.9891 40.3137 80.3653 38.1528C79.6902 38.4994 78.9527 38.7401 78.1502 38.8771C77.5576 39.971 76.6273 41.1472 75.3607 42.4038H75.0469V41.1747C75.7573 40.4365 76.4002 39.6429 76.9746 38.795C76.1896 38.4484 75.7983 37.9333 75.7983 37.2507C75.7983 36.5478 76.0368 35.7985 76.5166 34.9999C76.995 34.2031 77.6533 33.8047 78.4925 33.8047C79.2037 33.8047 79.5585 34.1681 79.5585 34.8978C79.5585 35.4722 79.3536 36.2922 78.9427 37.3592C80.4556 37.1947 81.7775 36.038 82.9085 33.8861L84.1522 33.8311L82.8806 37.3314C82.3523 38.8082 82.0103 39.8142 81.8557 40.3469C81.7012 40.8795 81.623 41.3522 81.623 41.7616C81.623 42.145 81.7122 42.4513 81.8893 42.6776C82.0671 42.9072 82.307 43.02 82.6076 43.02C82.9353 43.02 83.2505 42.9079 83.5511 42.6859C83.8517 42.4606 84.5264 41.8437 85.5752 40.832V42.4042H85.5748Z" fill="#010101"/>
<path d="M99.0027 42.404C96.8972 44.6295 95.0912 45.7411 93.5879 45.7411C92.9771 45.7411 92.4848 45.5269 92.1111 45.0982C91.7366 44.6702 91.5499 44.0961 91.5499 43.3761C91.5499 42.4008 91.9515 40.91 92.754 38.9055C93.182 37.8295 93.3969 37.1448 93.3969 36.8542C93.3969 36.5622 93.282 36.4162 93.0553 36.4162C92.9279 36.4162 92.7583 36.4805 92.5491 36.6072C92.3567 36.7346 92.1336 36.9139 91.8783 37.1413C91.6509 37.3504 91.3949 37.6057 91.1126 37.9056C90.8659 38.163 90.6014 38.4543 90.3204 38.7813L89.5536 39.6709C89.217 40.0807 89.007 40.513 88.9253 40.9693C88.7878 41.7439 88.6972 42.4557 88.6511 43.1037C88.6233 43.5856 88.6101 44.2368 88.6101 45.0589L85.5882 45.7686C85.4886 44.5381 85.4375 43.6217 85.4375 43.0209C85.4375 41.5533 85.6085 40.1628 85.9509 38.8505C86.2925 37.5368 86.8412 36.061 87.5984 34.4196L90.9341 33.7773C90.2326 35.6647 89.7724 37.1498 89.5536 38.234C91.0487 36.5661 92.2339 35.4116 93.1124 34.768C93.9895 34.1251 94.7706 33.8052 95.4532 33.8052C95.9169 33.8052 96.3046 33.9801 96.6134 34.3303C96.9236 34.6809 97.0779 35.1211 97.0779 35.6473C97.0779 36.5215 96.6859 37.962 95.903 39.9683C95.3647 41.3441 95.0955 42.2369 95.0955 42.6492C95.0955 43.1979 95.3193 43.4721 95.767 43.4721C96.4335 43.4721 97.513 42.5921 99.0027 40.8329V42.404Z" fill="#010101"/>
<path d="M58.5536 25.5241L57.9333 25.6997C57.8943 25.5963 57.8367 25.4958 57.7607 25.3983C57.6865 25.2988 57.5851 25.2169 57.4564 25.1526C57.3276 25.0882 57.1628 25.056 56.9619 25.056C56.6869 25.056 56.4577 25.1194 56.2743 25.2462C56.0929 25.371 56.0022 25.53 56.0022 25.7231C56.0022 25.8947 56.0647 26.0303 56.1895 26.1298C56.3143 26.2293 56.5094 26.3122 56.7747 26.3785L57.4417 26.5423C57.8436 26.6398 58.143 26.7891 58.34 26.99C58.537 27.1889 58.6355 27.4454 58.6355 27.7595C58.6355 28.0169 58.5614 28.2471 58.4131 28.45C58.2668 28.6528 58.062 28.8128 57.7987 28.9298C57.5354 29.0468 57.2291 29.1053 56.88 29.1053C56.4216 29.1053 56.0422 29.0059 55.7418 28.8069C55.4415 28.608 55.2513 28.3173 55.1713 27.935L55.8267 27.7712C55.8891 28.013 56.0071 28.1944 56.1807 28.3154C56.3563 28.4363 56.5855 28.4968 56.8683 28.4968C57.1901 28.4968 57.4456 28.4285 57.6349 28.292C57.826 28.1535 57.9216 27.9877 57.9216 27.7946C57.9216 27.6385 57.867 27.5078 57.7577 27.4025C57.6485 27.2952 57.4808 27.2153 57.2545 27.1626L56.5055 26.987C56.0939 26.8895 55.7916 26.7384 55.5985 26.5335C55.4073 26.3268 55.3117 26.0683 55.3117 25.7582C55.3117 25.5046 55.3829 25.2803 55.5253 25.0853C55.6697 24.8902 55.8657 24.7371 56.1134 24.6259C56.3631 24.5147 56.6459 24.4591 56.9619 24.4591C57.4066 24.4591 57.7558 24.5567 58.0094 24.7517C58.2649 24.9468 58.4463 25.2042 58.5536 25.5241ZM61.5006 29.1053C61.0793 29.1053 60.7165 29.0059 60.4122 28.8069C60.1079 28.608 59.8738 28.3339 59.71 27.9848C59.5461 27.6356 59.4642 27.2367 59.4642 26.7881C59.4642 26.3317 59.5481 25.9289 59.7158 25.5797C59.8855 25.2286 60.1216 24.9546 60.4239 24.7576C60.7282 24.5586 61.0832 24.4591 61.4889 24.4591C61.8049 24.4591 62.0897 24.5176 62.3432 24.6347C62.5968 24.7517 62.8045 24.9156 62.9664 25.1262C63.1283 25.3369 63.2288 25.5826 63.2678 25.8635H62.5773C62.5246 25.6587 62.4076 25.4773 62.2262 25.3193C62.0468 25.1594 61.8049 25.0794 61.5006 25.0794C61.2314 25.0794 60.9954 25.1496 60.7926 25.2901C60.5916 25.4286 60.4346 25.6246 60.3215 25.8782C60.2103 26.1298 60.1547 26.4253 60.1547 26.7647C60.1547 27.1119 60.2093 27.4142 60.3186 27.6717C60.4297 27.9292 60.5858 28.1291 60.7867 28.2715C60.9896 28.4139 61.2275 28.4851 61.5006 28.4851C61.6801 28.4851 61.8429 28.4539 61.9892 28.3914C62.1355 28.329 62.2594 28.2393 62.3608 28.1223C62.4622 28.0052 62.5344 27.8648 62.5773 27.7009H63.2678C63.2288 27.9662 63.1322 28.2052 62.9781 28.4178C62.826 28.6284 62.6241 28.7962 62.3725 28.921C62.1228 29.0439 61.8322 29.1053 61.5006 29.1053ZM64.2772 29.0117V24.5176H64.9677V29.0117H64.2772ZM64.6283 23.7686C64.4937 23.7686 64.3777 23.7228 64.2801 23.6311C64.1846 23.5394 64.1368 23.4292 64.1368 23.3005C64.1368 23.1718 64.1846 23.0616 64.2801 22.9699C64.3777 22.8782 64.4937 22.8324 64.6283 22.8324C64.7629 22.8324 64.878 22.8782 64.9736 22.9699C65.0711 23.0616 65.1198 23.1718 65.1198 23.3005C65.1198 23.4292 65.0711 23.5394 64.9736 23.6311C64.878 23.7228 64.7629 23.7686 64.6283 23.7686ZM66.8761 27.3733L66.8644 26.5189H67.0048L68.971 24.5176H69.8253L67.7304 26.6359H67.6719L66.8761 27.3733ZM66.2324 29.0117V23.0196H66.9229V29.0117H66.2324ZM69.088 29.0117L67.3325 26.7881L67.824 26.3083L69.9658 29.0117H69.088ZM70.714 29.0117V24.5176H71.4045V29.0117H70.714ZM71.0651 23.7686C70.9305 23.7686 70.8145 23.7228 70.717 23.6311C70.6214 23.5394 70.5736 23.4292 70.5736 23.3005C70.5736 23.1718 70.6214 23.0616 70.717 22.9699C70.8145 22.8782 70.9305 22.8324 71.0651 22.8324C71.1997 22.8324 71.3148 22.8782 71.4104 22.9699C71.5079 23.0616 71.5567 23.1718 71.5567 23.3005C71.5567 23.4292 71.5079 23.5394 71.4104 23.6311C71.3148 23.7228 71.1997 23.7686 71.0651 23.7686ZM74.6237 24.5176V25.1028H72.2947V24.5176H74.6237ZM72.9735 23.4409H73.664V27.7244C73.664 27.9194 73.6923 28.0657 73.7488 28.1632C73.8074 28.2588 73.8815 28.3232 73.9712 28.3563C74.0629 28.3875 74.1594 28.4031 74.2609 28.4031C74.3369 28.4031 74.3994 28.3992 74.4481 28.3914C74.4969 28.3817 74.5359 28.3739 74.5652 28.368L74.7056 28.9883C74.6588 29.0059 74.5934 29.0234 74.5096 29.041C74.4257 29.0605 74.3194 29.0702 74.1906 29.0702C73.9956 29.0702 73.8044 29.0283 73.6172 28.9444C73.4319 28.8606 73.2778 28.7328 73.1549 28.5611C73.034 28.3895 72.9735 28.173 72.9735 27.9116V23.4409Z" fill="white"/>
</g>
<defs>
<clipPath id="clip0_4094_7941">
<rect width="99" height="53.3909" fill="white"/>
</clipPath>
</defs>
</svg>
